nColumns=19
nRows=76
DataType=double
version=3
OpenSimVersion=4.1
endheader
time	ground_force_calcn_r_vx	ground_force_calcn_r_vy	ground_force_calcn_r_vz	ground_force_calcn_r_px	ground_force_calcn_r_py	ground_force_calcn_r_pz	ground_force_calcn_r_mx	ground_force_calcn_r_my	ground_force_calcn_r_mz	ground_force_calcn_l_vx	ground_force_calcn_l_vy	ground_force_calcn_l_vz	ground_force_calcn_l_px	ground_force_calcn_l_py	ground_force_calcn_l_pz	ground_force_calcn_l_mx	ground_force_calcn_l_my	ground_force_calcn_l_mz
9.9	-1.26916	399.291	-17.5703	-0.230399	0	-0.453233	0.00484113	-1.52308	0.0670212	0.29998	120.8	19.1192	-0.210616	0	-0.774064	-4.27343e-06	-0.00172088	-0.000272368
9.91	-0.659993	393.384	-17.6367	-0.231005	0	-0.453148	0.00243423	-1.4509	0.065049	0.45823	120.542	19.3955	-0.211644	0	-0.774384	-5.64523e-05	-0.0148503	-0.00238946
9.92	-0.14204	387.734	-17.691	-0.231647	0	-0.453085	0.00050619	-1.38177	0.0630455	0.598532	120.352	19.7145	-0.212707	0	-0.774714	-0.00011808	-0.0237433	-0.00388933
9.93	0.275219	382.356	-17.7273	-0.23233	0	-0.453046	-0.000947442	-1.31626	0.0610262	0.717214	120.231	20.0719	-0.213799	0	-0.775049	-0.000170155	-0.028524	-0.00476195
9.94	0.5895	377.266	-17.7403	-0.233059	0	-0.453035	-0.00196032	-1.25456	0.0589937	0.812439	120.175	20.4598	-0.214918	0	-0.775385	-0.000199529	-0.0295142	-0.00502478
9.95	0.806138	372.477	-17.7254	-0.233841	0	-0.453054	-0.00258966	-1.19656	0.0569415	0.884067	120.179	20.8662	-0.216057	0	-0.775713	-0.000200159	-0.0272093	-0.00472426
9.96	0.937945	368.005	-17.6787	-0.234686	0	-0.453104	-0.00291089	-1.14209	0.0548653	0.933276	120.231	21.2763	-0.217211	0	-0.776022	-0.000171884	-0.0221432	-0.0039185
9.97	1.00365	363.865	-17.5984	-0.235607	0	-0.453184	-0.0030094	-1.09103	0.052768	0.962072	120.32	21.6719	-0.218374	0	-0.776295	-0.000119431	-0.0149365	-0.00269035
9.98	1.02415	360.078	-17.4856	-0.236612	0	-0.453296	-0.00296742	-1.04331	0.0506636	0.972764	120.433	22.0339	-0.219537	0	-0.776516	-4.997e-05	-0.00618651	-0.00113186
9.99	1.01976	356.678	-17.3445	-0.23771	0	-0.453437	-0.00285599	-0.998928	0.0485758	0.967374	120.566	22.344	-0.220696	0	-0.77667	2.87929e-05	0.00358852	0.000665046
10	1.0097	353.714	-17.1819	-0.238907	0	-0.453606	-0.00273482	-0.958056	0.0465383	0.947616	120.725	22.5861	-0.221843	0	-0.776742	0.00010949	0.0139489	0.00260967
10.01	1.01245	351.25	-17.0075	-0.240201	0	-0.4538	-0.00265506	-0.921117	0.0446003	0.915317	120.927	22.7484	-0.222979	0	-0.776721	0.000185266	0.0244764	0.00460443
10.02	1.04511	349.359	-16.8336	-0.241589	0	-0.454012	-0.00265817	-0.888571	0.0428152	0.872576	121.203	22.824	-0.224113	0	-0.776597	0.000251273	0.0349025	0.00657255
10.03	1.12212	348.118	-16.6743	-0.24306	0	-0.454239	-0.0027748	-0.860832	0.0412324	0.822038	121.594	22.8113	-0.225257	0	-0.776364	0.000304525	0.0450446	0.00845049
10.04	1.25459	347.603	-16.542	-0.244597	0	-0.454474	-0.00302553	-0.83827	0.0398922	0.767938	122.145	22.7141	-0.226423	0	-0.776019	0.000343749	0.0546751	0.0101674
10.05	1.45037	347.877	-16.4465	-0.246177	0	-0.454714	-0.00342404	-0.821267	0.0388269	0.716448	122.897	22.5406	-0.227617	0	-0.775567	0.000370544	0.0635616	0.0116579
10.06	1.71306	348.997	-16.3952	-0.247773	0	-0.454954	-0.00397765	-0.810354	0.038069	0.67456	123.875	22.3042	-0.228838	0	-0.775023	0.000389406	0.0715096	0.0128756
10.07	2.04025	351.005	-16.3935	-0.249353	0	-0.455187	-0.00468636	-0.806241	0.0376551	0.648564	125.081	22.0215	-0.230077	0	-0.774402	0.00040661	0.0784182	0.0138061
10.08	2.42406	353.926	-16.4452	-0.250885	0	-0.455408	-0.00554653	-0.809825	0.0376286	0.642335	126.493	21.7118	-0.231322	0	-0.773729	0.000428721	0.0844265	0.0144914
10.09	2.85161	357.76	-16.5543	-0.252337	0	-0.45561	-0.00655352	-0.822195	0.0380447	0.656697	128.064	21.3963	-0.232549	0	-0.773032	0.000461776	0.0900519	0.0150455
10.1	3.3056	362.474	-16.726	-0.253682	0	-0.455785	-0.00770153	-0.844507	0.038969	0.689395	129.735	21.0966	-0.233733	0	-0.772339	0.000511062	0.0961751	0.0156393
10.11	3.76535	368.004	-16.968	-0.254894	0	-0.455931	-0.00898144	-0.877796	0.0404735	0.73546	131.439	20.8335	-0.234846	0	-0.771676	0.000581772	0.103973	0.01648
10.12	4.20746	374.251	-17.2898	-0.255958	0	-0.45604	-0.0103748	-0.92283	0.0426331	0.788551	133.108	20.6262	-0.23586	0	-0.771065	0.000679379	0.114679	0.0177705
10.13	4.60802	381.087	-17.7009	-0.256859	0	-0.456109	-0.0118486	-0.979885	0.045514	0.842611	134.675	20.4897	-0.236752	0	-0.770524	0.000810759	0.129584	0.0197152
10.14	4.94466	388.352	-18.2071	-0.257591	0	-0.456139	-0.0133489	-1.04842	0.0491531	0.892798	136.084	20.4336	-0.237503	0	-0.770065	0.000984105	0.150002	0.0225233
10.15	5.19648	395.867	-18.8078	-0.258149	0	-0.456127	-0.0147922	-1.12687	0.0535376	0.935842	137.288	20.4611	-0.238101	0	-0.769692	0.00120601	0.176922	0.026368
10.16	5.34539	403.435	-19.4932	-0.258535	0	-0.456076	-0.0160668	-1.21261	0.0585911	0.969724	138.259	20.5697	-0.238538	0	-0.769411	0.00147848	0.210796	0.0313614
10.17	5.37957	410.844	-20.2436	-0.258751	0	-0.455988	-0.0170526	-1.30232	0.0641698	0.993915	138.992	20.752	-0.238812	0	-0.769219	0.00179906	0.251585	0.0375626
10.18	5.29526	417.89	-21.03	-0.258806	0	-0.455867	-0.0176413	-1.39221	0.0700618	1.00962	139.506	20.9977	-0.238926	0	-0.76911	0.00216286	0.298859	0.0449825
10.19	5.09679	424.394	-21.818	-0.258708	0	-0.455722	-0.0177552	-1.47842	0.0760053	1.01967	139.848	21.2953	-0.23889	0	-0.769075	0.00256551	0.35186	0.0535793
10.2	4.79654	430.219	-22.574	-0.25847	0	-0.455558	-0.0173648	-1.55751	0.0817243	1.02843	140.083	21.6342	-0.238716	0	-0.76911	0.00300795	0.409714	0.0632756
10.21	4.41432	435.281	-23.2687	-0.258104	0	-0.45538	-0.0164991	-1.62692	0.0869696	1.04146	140.289	22.0055	-0.238425	0	-0.769203	0.00350046	0.471527	0.073963
10.22	3.97659	439.56	-23.8804	-0.257626	0	-0.455195	-0.0152453	-1.68517	0.0915517	1.06482	140.547	22.4029	-0.23804	0	-0.769346	0.00406363	0.536365	0.0854953
10.23	3.51424	443.098	-24.3968	-0.257052	0	-0.455005	-0.0137355	-1.73185	0.0953552	1.10414	140.935	22.8228	-0.237585	0	-0.76953	0.00472581	0.603213	0.0976835
10.24	3.06027	445.998	-24.815	-0.256403	0	-0.454814	-0.0121281	-1.76752	0.0983433	1.16367	141.514	23.2639	-0.237089	0	-0.769747	0.0055171	0.670935	0.110297
10.25	2.64589	448.412	-25.1409	-0.255697	0	-0.454624	-0.0105825	-1.79347	0.100554	1.24599	142.329	23.7278	-0.236579	0	-0.769993	0.00646465	0.738458	0.123109
10.26	2.29579	450.52	-25.3882	-0.254953	0	-0.454434	-0.00923208	-1.81168	0.102094	1.35134	143.4	24.2179	-0.236079	0	-0.770262	0.00758435	0.804827	0.135922
10.27	2.02529	452.509	-25.5757	-0.254187	0	-0.454245	-0.00816537	-1.82439	0.103114	1.47653	144.719	24.7391	-0.235607	0	-0.770553	0.00886826	0.869203	0.148587
10.28	1.83891	454.549	-25.7258	-0.253409	0	-0.454055	-0.00741891	-1.83383	0.103788	1.61526	146.251	25.2961	-0.235166	0	-0.770863	0.0102799	0.930777	0.160991
10.29	1.73105	456.778	-25.8628	-0.252625	0	-0.453864	-0.0069807	-1.84202	0.104295	1.75927	147.929	25.8904	-0.234754	0	-0.771192	0.0117581	0.988683	0.173039
10.3	1.68723	459.279	-26.0101	-0.251839	0	-0.453669	-0.00679763	-1.85038	0.104791	1.89988	149.656	26.518	-0.23436	0	-0.771539	0.0132291	1.04208	0.184648
10.31	1.68669	462.078	-26.1887	-0.25105	0	-0.453472	-0.00678842	-1.85973	0.105402	2.02915	151.314	27.1671	-0.233968	0	-0.771903	0.0146194	1.09017	0.195731
10.32	1.70467	465.137	-26.4143	-0.250253	0	-0.453269	-0.00685416	-1.87022	0.106207	2.1399	152.768	27.818	-0.233555	0	-0.772282	0.0158599	1.13224	0.206173
10.33	1.71269	468.36	-26.6959	-0.249444	0	-0.453062	-0.00688035	-1.88153	0.107245	2.22552	153.881	28.4434	-0.233098	0	-0.772674	0.0168881	1.16771	0.215841
10.34	1.67913	471.61	-27.0341	-0.248611	0	-0.45285	-0.00674005	-1.89305	0.108515	2.28009	154.525	29.0111	-0.232576	0	-0.773075	0.0176508	1.19621	0.224582
10.35	1.57179	474.723	-27.4207	-0.247747	0	-0.452637	-0.00630466	-1.90418	0.109988	2.2993	154.598	29.487	-0.231966	0	-0.773478	0.0181083	1.21754	0.232226
10.36	1.3614	477.529	-27.8402	-0.246841	0	-0.452421	-0.00545801	-1.91447	0.111614	2.28148	154.039	29.8402	-0.231255	0	-0.773879	0.0182441	1.23178	0.23862
10.37	1.02498	479.879	-28.2712	-0.245886	0	-0.452204	-0.00410889	-1.92372	0.113333	2.22858	152.836	30.0465	-0.230436	0	-0.774267	0.0180726	1.23941	0.24366
10.38	0.549587	481.662	-28.6912	-0.244881	0	-0.451989	-0.00220447	-1.93201	0.115085	2.14638	151.039	30.0924	-0.229509	0	-0.77464	0.017641	1.24138	0.247327
10.39	-0.0638321	482.821	-29.0792	-0.243826	0	-0.451777	0.000256444	-1.93972	0.116825	2.04301	148.75	29.9782	-0.228487	0	-0.774988	0.0170165	1.23896	0.249692
10.4	-0.79847	483.352	-29.4184	-0.242733	0	-0.451574	0.00321697	-1.94739	0.118524	1.92737	146.117	29.7176	-0.227391	0	-0.775307	0.0162704	1.23349	0.250869
10.41	-1.62251	483.305	-29.697	-0.241619	0	-0.451381	0.00656511	-1.95558	0.120162	1.80809	143.314	29.3373	-0.226246	0	-0.77559	0.0154696	1.22616	0.251002
10.42	-2.49252	482.766	-29.9095	-0.240507	0	-0.451202	0.0101439	-1.96473	0.121723	1.6926	140.526	28.8741	-0.225087	0	-0.775836	0.0146696	1.21793	0.250249
10.43	-3.3585	481.848	-30.0557	-0.239426	0	-0.451043	0.0137671	-1.97518	0.123203	1.58662	137.932	28.3714	-0.223953	0	-0.776045	0.0139118	1.20942	0.248766
10.44	-4.17005	480.68	-30.1401	-0.238404	0	-0.450906	0.0172408	-1.98734	0.124612	1.49335	135.688	27.8747	-0.222883	0	-0.776218	0.0132165	1.20088	0.246698
10.45	-4.88256	479.39	-30.1706	-0.237474	0	-0.450793	0.0203843	-2.00142	0.12596	1.41281	133.917	27.4262	-0.221919	0	-0.776356	0.012577	1.19214	0.24415
10.46	-5.46064	478.095	-30.1573	-0.23666	0	-0.450704	0.0230433	-2.01751	0.12726	1.3424	132.696	27.061	-0.221095	0	-0.77646	0.0119652	1.18275	0.241202
10.47	-5.88003	476.891	-30.1111	-0.235985	0	-0.450643	0.0250986	-2.03558	0.128528	1.27773	132.058	26.8035	-0.220432	0	-0.776533	0.0113416	1.1722	0.237919
10.48	-6.12882	475.852	-30.0427	-0.235462	0	-0.450607	0.0264763	-2.05566	0.129783	1.2134	131.993	26.6662	-0.219939	0	-0.776579	0.0106638	1.16	0.234352
10.49	-6.20736	475.021	-29.9604	-0.235098	0	-0.450596	0.0271524	-2.07785	0.131054	1.14443	132.45	26.649	-0.21961	0	-0.776606	0.00990154	1.14595	0.230566
10.5	-6.12766	474.411	-29.8694	-0.234893	0	-0.450609	0.0271537	-2.10228	0.132362	1.06759	133.348	26.7406	-0.219429	0	-0.776622	0.009049	1.13027	0.226655
10.51	-5.91142	474.006	-29.7726	-0.234833	0	-0.450643	0.0265519	-2.12905	0.133727	0.981931	134.587	26.9201	-0.219376	0	-0.776633	0.00812389	1.11349	0.22272
10.52	-5.58752	473.763	-29.6703	-0.234904	0	-0.450694	0.0254539	-2.15822	0.135163	0.888854	136.05	27.1597	-0.219423	0	-0.776641	0.00716221	1.09626	0.218848
10.53	-5.18925	473.621	-29.5622	-0.23508	0	-0.450758	0.0239898	-2.18954	0.136665	0.791481	137.62	27.4282	-0.219539	0	-0.776649	0.00620718	1.07928	0.215105
10.54	-4.7505	473.502	-29.4472	-0.235337	0	-0.450831	0.0222978	-2.22251	0.138219	0.694128	139.186	27.6951	-0.219697	0	-0.776652	0.00530224	1.0632	0.211555
10.55	-4.3029	473.33	-29.3249	-0.235647	0	-0.45091	0.0205118	-2.25636	0.139791	0.601732	140.651	27.9342	-0.219876	0	-0.776648	0.0044865	1.04869	0.208277
10.56	-3.87327	473.041	-29.1954	-0.235983	0	-0.450992	0.0187519	-2.29016	0.141346	0.519362	141.942	28.1264	-0.220063	0	-0.776634	0.00379181	1.0363	0.205348
10.57	-3.4821	472.584	-29.0601	-0.236324	0	-0.451075	0.0171154	-2.32287	0.142838	0.451795	143.012	28.261	-0.220244	0	-0.77661	0.00324224	1.0263	0.202811
10.58	-3.1426	471.932	-28.9216	-0.23665	0	-0.451154	0.0156705	-2.35328	0.144217	0.403086	143.843	28.3356	-0.220415	0	-0.776576	0.00285467	1.01871	0.200674
10.59	-2.86013	471.079	-28.7823	-0.236949	0	-0.451229	0.0144517	-2.38027	0.145431	0.376553	144.449	28.3555	-0.220576	0	-0.776536	0.00264174	1.01339	0.19893
10.6	-2.63288	470.04	-28.6453	-0.237213	0	-0.451295	0.0134598	-2.40293	0.14644	0.374957	144.862	28.3323	-0.220733	0	-0.77649	0.00261461	1.01014	0.197564
10.61	-2.45371	468.846	-28.5131	-0.23744	0	-0.451353	0.0126684	-2.42063	0.147212	0.400211	145.137	28.282	-0.220894	0	-0.776447	0.00278094	1.00851	0.196523
10.62	-2.31175	467.542	-28.3884	-0.237628	0	-0.451401	0.0120301	-2.43303	0.14773	0.453115	145.332	28.2224	-0.221064	0	-0.776407	0.00314303	1.0081	0.195765
10.63	-2.19405	466.185	-28.2734	-0.237785	0	-0.45144	0.0114843	-2.44015	0.147991	0.532898	145.509	28.1702	-0.221249	0	-0.776374	0.00369379	1.0086	0.195262
10.64	-2.08741	464.835	-28.1689	-0.237917	0	-0.451471	0.0109674	-2.44228	0.148001	0.636861	145.722	28.1393	-0.221457	0	-0.77635	0.004413	1.00975	0.194986
10.65	-1.98	463.552	-28.0742	-0.238033	0	-0.451494	0.0104224	-2.44005	0.147777	0.760377	146.012	28.1398	-0.221694	0	-0.776333	0.0052665	1.01131	0.194901
